<svg width="800" height="800" viewBox="0 0 800 800" fill="none" xmlns="http://www.w3.org/2000/svg">
<g clip-path="url(#clip0_26_9)">
<path d="M198.567 387.225L276.741 267.059C276.741 267.059 159.969 220.672 105.573 262.25C51.1797 303.851 0.0078125 419.037 0.0078125 419.037L57.9906 452.656C57.9906 452.656 131.38 310.444 198.567 387.225Z" fill="white"/>
<path d="M412.777 601.434L532.942 523.261C532.942 523.261 579.33 640.033 537.752 694.428C496.15 748.798 380.964 799.995 380.964 799.995L347.37 742.012C347.37 742.012 489.583 668.622 412.777 601.434Z" fill="white"/>
<path d="M322.956 567.011L302.327 546.405C264.827 643.865 176.741 623.261 176.741 623.261C176.741 623.261 156.134 535.175 253.597 497.675L232.991 477.069C178.62 467.694 109.259 533.294 98.0047 597.015C86.7735 660.736 84.8938 715.083 84.8938 715.083C84.8938 715.083 139.239 713.226 202.984 701.972C266.73 690.717 332.331 621.381 322.956 567.011Z" fill="white"/>
<path d="M789.413 10.589C704.353 -29.2782 488.948 45.2812 369.148 204.169C277.864 325.189 229.011 406.733 229.011 406.733L301.52 479.242L320.759 498.481L393.245 570.967C393.245 570.967 474.838 522.139 595.858 430.88C754.695 311.053 829.28 95.6484 789.413 10.589ZM429.109 370.892C409.089 350.872 409.089 318.401 429.109 298.383C449.13 278.364 481.575 278.362 501.619 298.408C521.639 318.428 521.639 350.873 501.619 370.894C481.575 390.912 449.128 390.912 429.109 370.892ZM549.3 250.726C523.42 224.823 523.42 182.88 549.3 157.001C575.155 131.122 617.122 131.122 643.002 157.001C668.881 182.881 668.881 224.823 643.002 250.726C617.122 276.581 575.155 276.581 549.3 250.726Z" fill="white"/>
<ellipse cx="471" cy="334" rx="71" ry="66" fill="white"/>
</g>
<defs>
<clipPath id="clip0_26_9">
<rect width="800" height="800" fill="white"/>
</clipPath>
</defs>
</svg>
